# xmcd
# 
# Track frame offsets:
#     150
#     14049
#     24928
#     35609
#     46325
#     56017
#     66192
#     77805
#     88045
#     99966
#     112107
#     121957
#     133700
#     143995
#     155202
#     167177
#     177036
# 
# Disc length: 2532
# 
# Revision: 4
# Processed by: cddbd v1.5.2PL0 Copyright (c) Steve Scherf et al.
# Submitted via: fre:ac v1.1beta1pre3
# 
DISCID=ec09e211
DTITLE=George Jones - The Great Lost Hits ( Disc 2 )
DYEAR=2010
DGENRE=Country
TTITLE0=A Good Year For The Roses
TTITLE1=Tell Me My Lying Eyes Are Wrong
TTITLE2=World Of Forgotten People
TTITLE3=Sometimes You Just Can't Win
TTITLE4=Right Won't Touch A Hand
TTITLE5=A Day In The Life Of A Fool
TTITLE6=Burn Another Honky Tonk Down
TTITLE7=Your Angel Steps Out Of Heaven
TTITLE8=I'll Follow You (Up To Our Cloud)
TTITLE9=Never Grow Cold
TTITLE10=The Honky Tonk Downstairs
TTITLE11=We Must Have Been Out Of Our Minds Featuring Melba Montgomery
TTITLE12=Developing My Pictures
TTITLE13=Old Brush Arbors
TTITLE14=Beneath Still Waters
TTITLE15=Feeling Single, Seeing Double
TTITLE16=Will You Visit Me On Sunday
EXTD=
EXTT0=
EXTT1=
EXTT2=
EXTT3=
EXTT4=
EXTT5=
EXTT6=
EXTT7=
EXTT8=
EXTT9=
EXTT10=
EXTT11=
EXTT12=
EXTT13=
EXTT14=
EXTT15=
EXTT16=
PLAYORDER=
